<svg xmlns="http://www.w3.org/2000/svg" viewBox="0 0 32 32" enable-background="new 0 0 32 32"><path d="m31.896 17.702l-1.677-5.219c-.002-.005 0-.011-.001-.016l-3.327-10.384c-.216-.648-.817-1.083-1.497-1.083-.003 0-.006 0-.009 0-.681.004-1.277.443-1.485 1.093l-3.102 9.675h-9.59l-3.107-9.674c-.208-.651-.805-1.09-1.486-1.094-.003 0-.006 0-.009 0-.681 0-1.281.435-1.5 1.094l-3.314 10.36c-.002.005-.005.009-.007.014l-1.682 5.234c-.285.889.026 1.856.774 2.407l14.525 10.696c.036.026.077.038.115.059.008.004.012.011.02.016.004.002.009.003.013.005.012.006.024.009.036.015.009.004.018.01.027.014.004.002.007.004.011.006.043.017.086.032.131.043.022.006.045.006.067.011.059.009.116.026.174.026.023 0 .045-.012.069-.014.07-.005.14-.015.209-.035.013-.004.027-.003.041-.007.009-.003.016-.009.025-.012.026-.01.05-.021.075-.032.012-.005.024-.009.036-.015.004-.002.009-.003.013-.005.017-.009.028-.025.045-.035.027-.016.058-.025.084-.043.001-.001.003-.001.004-.002l14.525-10.69c.748-.551 1.06-1.519.774-2.408m-22.15-3.929l3.551 11.07-8.523-11.07h4.972m8.956 11.07l3.182-9.923.369-1.152h4.976l-5.432 7.06-3.095 4.02m6.693-20.873l2.498 7.793h-4.996l2.498-7.793m-5.24 9.793l-2.937 9.158-1.217 3.794-4.152-12.952h8.306m-13.552-9.793l2.503 7.793h-4.996l2.493-7.793m-4.541 14.523c-.054-.039-.077-.117-.056-.185l1.099-3.421 7.771 10.1-8.814-6.49m27.874 0l-8.814 6.487.34-.442 7.432-9.651 1.098 3.42c.021.069-.003.147-.056.186"/></svg>