<?xml version="1.0" standalone="no"?>
<!DOCTYPE svg PUBLIC "-//W3C//DTD SVG 20010904//EN"
 "http://www.w3.org/TR/2001/REC-SVG-20010904/DTD/svg10.dtd">
<svg version="1.0" xmlns="http://www.w3.org/2000/svg"
 width="312.000000pt" height="312.000000pt" viewBox="0 0 312.000000 312.000000"
 preserveAspectRatio="xMidYMid meet">
<metadata>
Created by potrace 1.11, written by Peter Selinger 2001-2013
</metadata>
<g transform="translate(0.000000,312.000000) scale(0.100000,-0.100000)"
fill="#000000" stroke="none">
<path d="M0 1560 l0 -1560 1560 0 1560 0 0 1560 0 1560 -1560 0 -1560 0 0
-1560z m1570 1490 c19 -19 20 -33 20 -356 0 -265 3 -335 13 -331 6 2 91 30
188 61 l176 56 394 -141 c217 -77 400 -145 406 -151 17 -14 16 -73 0 -87 -11
-9 -224 -80 -640 -214 -5 -1 41 -71 103 -156 61 -84 115 -162 121 -174 6 -14
4 -174 -3 -438 -14 -455 -13 -449 -74 -449 -31 0 -40 10 -205 238 -95 130
-186 254 -202 275 l-29 38 -79 -108 c-43 -59 -99 -134 -124 -166 l-45 -57 0
-415 0 -414 -27 -20 c-28 -23 -59 -20 -80 7 -10 12 -13 111 -13 414 0 219 -3
398 -6 398 -4 0 -152 -43 -330 -95 -177 -52 -332 -95 -343 -95 -11 0 -27 7
-35 16 -36 35 -21 63 165 319 99 136 187 258 196 271 l14 23 -191 62 -191 62
-63 91 c-237 340 -416 612 -416 629 0 28 28 57 55 57 11 0 160 -45 330 -100
169 -55 309 -100 311 -100 2 0 4 81 4 179 0 99 5 192 10 206 9 24 374 506 483
638 43 52 74 60 107 27z"/>
<path d="M1290 2603 c-91 -119 -166 -221 -168 -228 -1 -6 47 -74 108 -151 126
-157 133 -165 126 -144 -49 155 -48 150 -34 172 9 13 42 31 79 43 l64 22 3
251 c1 139 -1 252 -5 251 -5 0 -82 -97 -173 -216z"/>
<path d="M1890 2193 c-52 -80 -104 -160 -114 -176 -19 -29 -19 -30 0 -18 10 6
48 31 83 56 35 25 70 45 78 45 15 0 45 -28 83 -79 l25 -33 245 79 244 80 -45
16 c-107 40 -493 177 -498 177 -3 0 -49 -66 -101 -147z"/>
<path d="M1625 2243 c-93 -31 -171 -56 -172 -57 -2 -2 19 -67 45 -147 l49
-144 131 197 c73 109 132 200 132 203 0 8 -3 7 -185 -52z"/>
<path d="M1100 2001 l0 -191 150 0 c83 0 150 2 150 4 0 2 -67 88 -150 191
l-150 187 0 -191z"/>
<path d="M496 2008 c28 -46 306 -448 312 -452 4 -3 91 25 192 62 l185 67 -75
3 c-41 1 -85 4 -97 7 -27 6 -43 52 -43 121 l0 53 -232 76 c-128 41 -237 75
-241 75 -5 0 -5 -6 -1 -12z"/>
<path d="M1802 1865 c-63 -46 -112 -87 -110 -92 2 -7 440 -134 446 -129 3 3
-193 275 -211 293 -9 9 -38 -8 -125 -72z"/>
<path d="M1210 1565 c-113 -41 -212 -77 -220 -80 -8 -4 66 -33 165 -65 98 -33
180 -58 181 -57 8 11 91 277 86 277 -4 -1 -99 -34 -212 -75z"/>
<path d="M1606 1488 c4 -73 9 -182 13 -243 l6 -109 108 149 c59 83 108 154
108 158 0 8 -226 177 -236 177 -3 0 -2 -60 1 -132z"/>
<path d="M1922 1542 c80 -60 85 -83 33 -158 -20 -29 -35 -58 -33 -63 1 -5 68
-99 148 -209 l145 -199 6 126 c9 163 12 441 6 447 -5 5 -351 104 -363 104 -3
0 23 -21 58 -48z"/>
<path d="M1457 1337 c-38 -116 -53 -127 -139 -98 -34 11 -62 20 -63 18 -30
-36 -296 -409 -294 -412 4 -2 540 152 544 158 2 2 -13 340 -17 391 -2 23 -9
10 -31 -57z"/>
</g>
</svg>
